<svg xmlns="http://www.w3.org/2000/svg" viewBox="0 0 125.65 75.21"><defs><style>.cls-1{fill:#b5d22c;}.cls-2{fill:#066543;}.cls-3{fill:#fff;}</style></defs><title>argo_logo</title><g id="Camada_2" data-name="Camada 2"><g id="Layer_1" data-name="Layer 1"><path class="cls-1" d="M2.24,75.15A1.68,1.68,0,0,1,.15,73.57C-.51,62.34-1,10.33,46.69,6.77,97.88,3,106.87,8.88,120.51.26a1.65,1.65,0,0,1,2.49,1c2.66,9.93,10.87,50.24-26.4,64.92A58.53,58.53,0,0,1,72.7,70C58.14,69.41,25.13,68.89,2.24,75.15Z"/><path class="cls-2" d="M3.82,71.71a1.54,1.54,0,0,1-1.9-1.44c-.43-10,0-56.15,43.87-58.6C93,9,101.14,14.42,113.83,7a1.53,1.53,0,0,1,2.27.93c2.3,8.86,9.23,44.76-25.29,57.24a55.63,55.63,0,0,1-22.06,3C55.36,67.44,25,66.49,3.82,71.71Z"/><path class="cls-3" d="M36.18,30.29H25.3v1.54a4.24,4.24,0,0,0,4.24,4.24h6.64a1,1,0,0,1,.79.35,1,1,0,0,1,.35.79v1h-8.2a6.43,6.43,0,0,0-4.83,2,6.8,6.8,0,0,0-1.91,4.86,6.72,6.72,0,0,0,2,4.88,6.58,6.58,0,0,0,4.86,2h9.63a4.22,4.22,0,0,0,4.22-4.22V37.21a6.73,6.73,0,0,0-2-4.89A6.61,6.61,0,0,0,36.18,30.29Zm-7,16a1,1,0,0,1-.76-.32,1.07,1.07,0,0,1-.33-.8,1,1,0,0,1,.3-.79,1.26,1.26,0,0,1,.93-.33h8v2.24Z"/><path class="cls-3" d="M46.36,32.36a7,7,0,0,0-1.82,4.81V52.06h5.55V37.24c0-.44,0-1.17,2.1-1.17h0A5.25,5.25,0,0,0,57,33l1.24-2.72H51.05A6.09,6.09,0,0,0,46.36,32.36Z"/><path class="cls-3" d="M58.9,33.56a10.86,10.86,0,0,0-3.15,7.8,11.2,11.2,0,0,0,3.18,7.8,10.64,10.64,0,0,0,12.9,1.9v3.18a1.18,1.18,0,0,1-.34.87,1,1,0,0,1-.8.33H63.3a5.78,5.78,0,0,0-5.78,5.78H70.6a6.92,6.92,0,0,0,7-7v-24H66.63A10.39,10.39,0,0,0,58.9,33.56Zm7.73,2.51h5.2v3.42h0v1.32A6.17,6.17,0,0,1,70.37,45a4.69,4.69,0,0,1-3.74,1.69A4.83,4.83,0,0,1,63,45.1a5.1,5.1,0,0,1-1.52-3.72A5.2,5.2,0,0,1,63,37.63,4.81,4.81,0,0,1,66.63,36.07Z"/><path class="cls-3" d="M97.23,33.48a10.89,10.89,0,0,0-18.58,7.7,10.89,10.89,0,1,0,18.58-7.7Zm-7.7,12.8a5,5,0,0,1-3.65-1.49,5,5,0,0,1,0-7.2,5.13,5.13,0,0,1,7.27,0,5.09,5.09,0,0,1,0,7.22A5,5,0,0,1,89.53,46.28Z"/></g></g></svg>