<svg xmlns="http://www.w3.org/2000/svg" viewBox="0 0 620.43 117.82"><defs><style>.cls-1{fill:#d33831;}.cls-2{fill:#fff;}</style></defs><title>logo_white</title><g id="Camada_2" data-name="Camada 2"><g id="Camada_1-2" data-name="Camada 1"><g id="Layer_2" data-name="Layer 2"><g id="Layer_1-2" data-name="Layer 1-2"><path class="cls-1" d="M21.08,2l40.2,74.84L50.82,96.25,0,2ZM87.91,116.34H67L128.59,2h20.92Z"/><path class="cls-2" d="M141.51,73.54l79.25.16L191.51,18.3,169.94,58.83H149.35L179.58,2h23.69L263.9,116.34H243.15L229.91,90.69H153l-13.24,25.65H119Z"/><path class="cls-2" d="M280.23,2h19V99.4h62.25v17H280.23Z"/><path class="cls-2" d="M488.73,59q0,24-15.52,40.36Q455.89,117.83,428,117.82T382.57,99.19Q367.17,82.51,367.17,59q0-23.86,15.35-40.2Q400.34,0,428,0t45.42,18.63Q488.74,35,488.73,59Zm-18.62,0q0-19.12-11.93-30.4Q446.74,17.15,428,17.15q-19.61,0-31.7,13.25Q385.64,42,385.63,59q0,18.47,12.09,30.22,11.61,11.61,30.23,11.61,18.94,0,30.23-11.45Q470.11,78.1,470.11,59Z"/><path class="cls-2" d="M620.43,116.34,589.88,71.73q13.73-2.28,21.24-10.45,8.49-8.67,8.5-23.37,0-16.51-10.3-26.31Q598.87,2,581.06,2h-76V116.34h19V19h54.49q21.65.8,21.65,18.92,0,17.64-21.73,17.81H556.24l42.14,60.65Z"/></g></g></g></g></svg>