<svg xmlns="http://www.w3.org/2000/svg" viewBox="0 0 174.14 104.66"><defs><style>.cls-1{fill:#673ab7;}.cls-2{fill:#fff;}</style></defs><title>te-emprego</title><g id="Camada_2" data-name="Camada 2"><g id="Layer_1" data-name="Layer 1"><path class="cls-1" d="M174.14,51.72c0-14.76-5.31-27-15.87-36.94S134.46.07,118.48,0H0V53.84a50.82,50.82,0,0,0,50.82,50.82h67.66q24.95-.08,40.28-15T174.14,51.72Z"/><path class="cls-2" d="M82.63,78.06H94.52V42.37H82.63Zm65.43-32.72a6,6,0,0,0-5.95-5.94H123.33l2.84-13.59a4.75,4.75,0,0,0,.1-.94A4.4,4.4,0,0,0,125,21.72l-3.16-3.14L102.21,38.16a6,6,0,0,0-1.74,4.21V72.11a6,6,0,0,0,6,6h26.77a5.92,5.92,0,0,0,5.47-3.63l9-21a6.08,6.08,0,0,0,.43-2.17V45.6l0,0Z"/><path class="cls-2" d="M40.63,95.55V30H11.26V8.9H94.11V30H64.61V95.55Z"/></g></g></svg>