<svg xmlns="http://www.w3.org/2000/svg" viewBox="0 0 1268.95 159"><defs><style>.cls-1{fill:none;}.cls-2{fill:#fff;}</style></defs><title>te_emprego</title><g id="Camada_2" data-name="Camada 2"><g id="Layer_2" data-name="Layer 2"><path class="cls-1" d="M673.25,62.48c0-5.37-1.65-9.67-5-13s-9.67-5-18.94-5H633.52l0,37.2h17.19C665.73,81.72,673.25,75.28,673.25,62.48Z"/><path class="cls-1" d="M781.47,43.59h-18l0,32.33h17c15.53,0,22-4.87,22-16.29C802.46,49,795.43,43.6,781.47,43.59Z"/><path class="cls-2" d="M0,81.8A77.2,77.2,0,0,0,77.2,159H280V0H0ZM157.72,13.68H259.78V45.13H194.15V65h56.74v27H194.15v22H262.9v31.44H157.72Zm-140.62,0H143v32H98.15v99.61H61.73V45.71H17.1Z"/><polygon class="cls-2" points="333.59 91.32 390.33 91.35 390.34 64.4 333.61 64.37 333.62 44.55 399.24 44.58 399.25 13.13 297.2 13.08 297.14 144.72 402.32 144.77 402.33 113.33 333.58 113.3 333.59 91.32"/><path class="cls-2" d="M496.3,71.58h-.39L458,13.16l-37.6,0-.07,131.64,36.43,0,0-52.44c-.1-4.49-.68-13.58-1.85-27.35l.69-.19,13.37,23,24.59,37.61h5.17L523,87.8c2.25-3.42,6.74-11.13,13.39-22.94l.59.19L535.35,92.4l0,52.44,36.33,0,.07-131.64-37.6,0Z"/><path class="cls-2" d="M709.09,61.33c0-14.65-4.87-26.37-14.72-35.07s-24.61-13-44-13l-53.22,0L597,144.87l36.43,0,0-35.36h21.58C689.93,109.56,709.08,92.29,709.09,61.33ZM633.5,81.7l0-37.2h15.82c9.27,0,15.62,1.67,18.94,5s5,7.62,5,13c0,12.8-7.52,19.24-22.56,19.23Z"/><path class="cls-2" d="M818.45,95c13.19-7.13,19.84-19.33,19.84-36.62,0-13.77-4.67-24.71-13.94-32.82S801,13.33,782.46,13.32l-55.37,0L727,144.93l36.43,0,0-43h17.77l25.18,43,40.43,0-28.4-49.43Zm-38-19.07h-17l0-32.33h18c14,0,21,5.38,21,16C802.45,71,796,75.92,780.47,75.91Z"/><polygon class="cls-2" points="897.07 91.59 953.81 91.62 953.82 64.67 897.08 64.64 897.09 44.82 962.72 44.85 962.73 13.4 860.68 13.36 860.62 145 965.79 145.05 965.81 113.6 897.06 113.57 897.07 91.59"/><path class="cls-2" d="M1106.35,73l-58.39,0,0,26H1070v9.37q-3.08,3.23-10,5.56a45.36,45.36,0,0,1-15.24,2.44,29,29,0,0,1-22.07-9.49c-6-6.35-9-14.85-9-25.68,0-11,3.43-20.22,10.27-27.34s16.41-10.64,28.62-10.63a73.78,73.78,0,0,1,40.52,11.93l9-29.59c-13-9.57-30.56-14.37-52.53-14.38s-39.56,6.62-53,19.9-20.23,30-20.24,50.09q0,28.86,17.56,47.56c11.61,12.61,27.23,18.86,46.86,18.87,15.53,0,27.15-5,34.77-15h1l5.85,12.6h23.93Z"/><path class="cls-2" d="M1248.27,30.44q-20.79-19.2-52.24-19.27-31.63,0-52.45,19.22t-20.82,48.13q0,30.92,20.48,50T1196,147.6q32.8,0,52.94-19.51t20-49.5Q1269,49.73,1248.27,30.44Zm-76.8,82.92h-15.6V66.56h15.6Zm70.2-42.57v7.47a7.83,7.83,0,0,1-.57,2.85l-11.76,27.49a7.78,7.78,0,0,1-7.17,4.76h-35.1a7.8,7.8,0,0,1-7.8-7.8v-39a7.89,7.89,0,0,1,2.28-5.52l25.68-25.68,4.15,4.12a5.79,5.79,0,0,1,1.72,4.13,6.09,6.09,0,0,1-.14,1.23l-3.72,17.82h24.63a7.8,7.8,0,0,1,7.8,7.8l0,.3Z"/></g></g></svg>