<svg xmlns="http://www.w3.org/2000/svg" viewBox="0 0 125.65 75.21"><g data-name="Camada 2"><g data-name="Layer 1"><path d="M2.24 75.15a1.68 1.68 0 01-2.09-1.58C-.51 62.34-1 10.33 46.69 6.77 97.88 3 106.87 8.88 120.51.26a1.65 1.65 0 012.49 1c2.66 9.93 10.87 50.24-26.4 64.92A58.53 58.53 0 0172.7 70c-14.56-.59-47.57-1.11-70.46 5.15z" fill="#b5d22c"/><path d="M3.82 71.71a1.54 1.54 0 01-1.9-1.44c-.43-10 0-56.15 43.87-58.6C93 9 101.14 14.42 113.83 7a1.53 1.53 0 012.27.93c2.3 8.86 9.23 44.76-25.29 57.24a55.63 55.63 0 01-22.06 3C55.36 67.44 25 66.49 3.82 71.71z" fill="#066543"/><path d="M36.18 30.29H25.3v1.54a4.24 4.24 0 004.24 4.24h6.64a1 1 0 01.79.35 1 1 0 01.35.79v1h-8.2a6.43 6.43 0 00-4.83 2 6.8 6.8 0 00-1.91 4.86 6.72 6.72 0 002 4.88 6.58 6.58 0 004.86 2h9.63a4.22 4.22 0 004.22-4.22V37.21a6.73 6.73 0 00-2-4.89 6.61 6.61 0 00-4.91-2.03zm-7 16a1 1 0 01-.76-.32 1.07 1.07 0 01-.33-.8 1 1 0 01.3-.79 1.26 1.26 0 01.93-.33h8v2.24zm17.18-13.93a7 7 0 00-1.82 4.81v14.89h5.55V37.24c0-.44 0-1.17 2.1-1.17A5.25 5.25 0 0057 33l1.24-2.72h-7.19a6.09 6.09 0 00-4.69 2.08zm12.54 1.2a10.86 10.86 0 00-3.15 7.8 11.2 11.2 0 003.18 7.8 10.64 10.64 0 0012.9 1.9v3.18a1.18 1.18 0 01-.34.87 1 1 0 01-.8.33H63.3a5.78 5.78 0 00-5.78 5.78H70.6a6.92 6.92 0 007-7v-24H66.63a10.39 10.39 0 00-7.73 3.34zm7.73 2.51h5.2v4.74A6.17 6.17 0 0170.37 45a4.69 4.69 0 01-3.74 1.69A4.83 4.83 0 0163 45.1a5.1 5.1 0 01-1.52-3.72A5.2 5.2 0 0163 37.63a4.81 4.81 0 013.63-1.56zm30.6-2.59a10.89 10.89 0 00-18.58 7.7 10.89 10.89 0 1018.58-7.7zm-7.7 12.8a5 5 0 01-3.65-1.49 5 5 0 010-7.2 5.13 5.13 0 017.27 0 5.09 5.09 0 010 7.22 5 5 0 01-3.62 1.47z" fill="#fff"/></g></g></svg>