<svg xmlns="http://www.w3.org/2000/svg" viewBox="0 0 620.43 166.98"><defs><style>.cls-1{fill:#1f1d20}</style></defs><g id="Layer_2" data-name="Layer 2"><g id="Layer_1-2" data-name="Layer 1"><path class="cls-1" d="M91.94 151.42h10.59V153h-8.92v5.26h7.3v1.58h-7.3v5.3h8.92v1.6H91.94zm30.23 7.58l5.72 7.72h-2.1l-4.8-6.58-4.83 6.58h-2.08l5.72-7.72-5.56-7.62h2.08L121 158l4.66-6.59h2.09zm18.44-7.58h5.91c3.66 0 5.72 2.45 5.72 5.39s-2.06 5.39-5.72 5.39h-4.25v4.56h-1.66zm5.56 9.2c3 0 4.34-1.62 4.34-3.81s-1.38-3.79-4.34-3.79h-3.9v7.6zm19.4-9.2h6.31c3.42 0 5.33 2.3 5.33 5a4.81 4.81 0 01-3.18 4.65l3.95 5.7h-2l-3.7-5.35h-5v5.35h-1.67zm6 8.39c2.63 0 3.88-1.49 3.88-3.4s-1.2-3.41-3.85-3.41h-4.36v6.79zm19.6-8.39h10.59V153h-8.92v5.26h7.3v1.58h-7.3v5.3h8.92v1.6h-10.59zm24.66 11.07c.25 2 2 2.93 4.43 2.93s4-1 4-2.52c0-1.88-2.19-2.39-4.56-3.07s-5.31-1.6-5.31-4.6c0-2.45 2.09-4 5.42-4s5.74 1.49 5.74 4.4v.24h-1.64v-.11c0-2-1.71-2.95-4.12-2.95s-3.66 1-3.66 2.49c0 1.82 1.86 2.37 4.12 3 3.09.9 5.72 1.71 5.72 4.58 0 2.61-2.2 4.1-5.7 4.1-3.29 0-5.7-1.38-6-4zm24.27 0c.24 2 2 2.93 4.43 2.93s3.94-1 3.94-2.52c0-1.88-2.19-2.39-4.56-3.07s-5.3-1.6-5.3-4.6c0-2.45 2.08-4 5.41-4s5.74 1.49 5.74 4.4v.24h-1.64v-.11c0-2-1.71-2.95-4.12-2.95s-3.66 1-3.66 2.49c0 1.82 1.86 2.37 4.12 3 3.09.9 5.72 1.71 5.72 4.58 0 2.61-2.19 4.1-5.7 4.1-3.28 0-5.7-1.38-6-4zm39.52-11.07h6.93c3 0 4.51 1.84 4.51 4a3.7 3.7 0 01-2.1 3.46 3.84 3.84 0 012.8 3.79c0 2.22-1.58 4.08-4.53 4.08h-7.61zm1.67 1.58v5.17h5.61a2.52 2.52 0 002.45-2.65c0-1.36-1-2.52-2.94-2.52zm0 6.75v5.43h5.78c2 0 3-1.23 3-2.63a2.76 2.76 0 00-3-2.8zM312 151.2a7.89 7.89 0 11-7.67 7.89 7.62 7.62 0 017.67-7.89zm0 14.18a6.3 6.3 0 10-5.94-6.29 6 6 0 005.94 6.29zm22.92-13.96v15.34h-1.66v-15.34zm14.6 0h1.67v13.74h8.41v1.6h-10.08zm22.98 0h10.58V153h-8.92v5.26h7.3v1.58h-7.3v5.3h8.92v1.6H372.5zm24.02 0h6.31c3.42 0 5.33 2.3 5.33 5a4.81 4.81 0 01-3.18 4.65l3.94 5.7h-2l-3.71-5.35h-5v5.35h-1.67zm6 8.39c2.63 0 3.88-1.49 3.88-3.4s-1.2-3.41-3.85-3.41h-4.36v6.79zm19.6-8.39H428c3.66 0 5.72 2.45 5.72 5.39s-2.06 5.39-5.72 5.39h-4.25v4.56h-1.67zm5.57 9.2c3 0 4.34-1.62 4.34-3.81s-1.38-3.79-4.34-3.79h-3.9v7.6zm19.4-9.2h1.67v13.74h8.41v1.6h-10.08zm29.55 0l6.66 15.34h-1.8l-1.44-3.33h-8.71l-1.42 3.33h-1.8l6.64-15.34zM472 161.83h7.35l-3.69-8.55zm20.42-10.41h12.32V153h-5.33v13.74h-1.66V153h-5.33zm25.23 0h10.59V153h-8.93v5.26h7.3v1.58h-7.3v5.3h8.93v1.6h-10.59z"/><path d="M21.08 2l40.2 74.84-10.46 19.41L0 2zm66.83 114.34H67L128.59 2h20.92z" fill="#d33831"/><path class="cls-1" d="M141.51 73.54l79.25.16-29.25-55.4-21.57 40.53h-20.59L179.58 2h23.69l60.63 114.34h-20.75l-13.24-25.65H153l-13.24 25.65H119zM280.23 2h19v97.4h62.25v17h-81.25zm208.5 57q0 24-15.52 40.36-17.32 18.46-45.21 18.46-27.78 0-45.43-18.63-15.41-16.68-15.4-40.19 0-23.86 15.35-40.2Q400.34 0 428 0q27.78 0 45.42 18.63Q488.73 35 488.73 59zm-18.62 0q0-19.12-11.93-30.4Q446.74 17.16 428 17.15q-19.6 0-31.7 13.25Q385.63 42 385.63 59q0 18.46 12.09 30.22 11.61 11.61 30.23 11.61 18.94 0 30.23-11.45Q470.11 78.1 470.11 59zm150.32 57.34l-30.55-44.61q13.73-2.28 21.24-10.45 8.49-8.67 8.5-23.37 0-16.51-10.3-26.31Q598.87 2 581.06 2h-76v114.34h19V19h54.49q21.65.8 21.65 18.92 0 17.64-21.73 17.81h-22.23l42.14 60.65z"/></g></g></svg>