<svg xmlns="http://www.w3.org/2000/svg" width="1476" height="1102" viewBox="150 74 1476 1102"><defs><marker id="a" viewBox="0 0 20 20" refX="11" refY="10" markerWidth="10" markerHeight="10" orient="auto"><path d="M1 5l10 5-10 5z" stroke-linecap="round" stroke-dasharray="10000,1" stroke="#000"/></marker><marker id="b" viewBox="0 0 20 20" refX="12" refY="10" markerWidth="10" markerHeight="10" orient="auto"><path d="M1 5l10 5-10 5" fill="none" stroke-width="1.5" stroke-linecap="round" stroke-dasharray="10000,1" stroke="#000"/></marker></defs><g class="djs-group"><g class="djs-element djs-shape" data-element-id="Participant_1sx6juv" display="block"><g class="djs-visual" transform="translate(156 80)"><rect width="1464" height="1090" rx="0" ry="0" stroke="#000" stroke-width="2" fill="#fff" fill-opacity=".95"/><path fill="none" stroke="#000" stroke-width="2" d="M30 0v1090"/><text class="djs-label" transform="rotate(-90 545 545)" font-family="Arial,sans-serif" font-size="12" font-weight="400"><tspan x="515.148" y="18.6">Requisição</tspan></text></g><path class="djs-outline" fill="none" d="M150 74h1476v1102H150z"/><path class="djs-hit djs-hit-click-stroke" fill="none" d="M156 80h1464v1090H156z"/><path class="djs-hit djs-hit-all" fill="none" d="M156 80h30v1090h-30z"/></g><g class="djs-children"><g class="djs-group"><g class="djs-element djs-shape" data-element-id="Lane_0t3sbq5" display="block"><g class="djs-visual" transform="translate(186 80)"><rect width="1434" height="108" rx="0" ry="0" stroke="#000" stroke-width="2" fill="#fff" fill-opacity=".35"/><text class="djs-label" transform="rotate(-90 54 54)" font-family="Arial,sans-serif" font-size="12" font-weight="400"><tspan x="35.156" y="18.6">Cliente</tspan></text></g><path class="djs-outline" fill="none" d="M180 74h1446v120H180z"/><path class="djs-hit djs-hit-click-stroke" fill="none" d="M186 80h1434v108H186z"/><path class="djs-hit djs-hit-all" fill="none" d="M186 80h30v108h-30z"/></g></g><g class="djs-group"><g class="djs-element djs-shape" data-element-id="Lane_1kmwxoa" display="block"><g class="djs-visual" transform="translate(186 188)"><rect width="1434" height="982" rx="0" ry="0" stroke="#000" stroke-width="2" fill="#fff" fill-opacity=".35"/><text class="djs-label" transform="rotate(-90 491 491)" font-family="Arial,sans-serif" font-size="12" font-weight="400"><tspan x="476.93" y="18.6">Valor</tspan></text></g><path class="djs-outline" fill="none" d="M180 182h1446v994H180z"/><path class="djs-hit djs-hit-click-stroke" fill="none" d="M186 188h1434v982H186z"/><path class="djs-hit djs-hit-all" fill="none" d="M186 188h30v982h-30z"/></g></g><g class="djs-group"><g class="djs-element djs-shape" data-element-id="Lane_0fp54kp" display="block"><g class="djs-visual" transform="translate(216 188)"><rect width="1404" height="412" rx="0" ry="0" stroke="#000" stroke-width="2" fill="#fff" fill-opacity=".35"/><text class="djs-label" transform="rotate(-90 206 206)" font-family="Arial,sans-serif" font-size="12" font-weight="400"><tspan x="161.133" y="18.6">Instância do App</tspan></text></g><path class="djs-outline" fill="none" d="M210 182h1416v424H210z"/><path class="djs-hit djs-hit-click-stroke" fill="none" d="M216 188h1404v412H216z"/><path class="djs-hit djs-hit-all" fill="none" d="M216 188h30v412h-30z"/></g></g><g class="djs-group"><g class="djs-element djs-shape" data-element-id="Lane_1ietaxz" display="block"><g class="djs-visual" transform="translate(216 600)"><rect width="1404" height="570" rx="0" ry="0" stroke="#000" stroke-width="2" fill="#fff" fill-opacity=".35"/><text class="djs-label" transform="rotate(-90 285 285)" font-family="Arial,sans-serif" font-size="12" font-weight="400"><tspan x="265.156" y="18.6">Módulo</tspan></text></g><path class="djs-outline" fill="none" d="M210 594h1416v582H210z"/><path class="djs-hit djs-hit-click-stroke" fill="none" d="M216 600h1404v570H216z"/><path class="djs-hit djs-hit-all" fill="none" d="M216 600h30v570h-30z"/></g></g><g class="djs-group"><g class="djs-element djs-shape" data-element-id="Lane_0nfhcuf" display="block"><g class="djs-visual" transform="translate(246 188)"><rect width="1374" height="272" rx="0" ry="0" stroke="#000" stroke-width="2" fill="#fff" fill-opacity=".35"/><text class="djs-label" transform="rotate(-90 136 136)" font-family="Arial,sans-serif" font-size="12" font-weight="400"><tspan x="52.289" y="18.6">Controlador de Rotas (express)</tspan></text></g><path class="djs-outline" fill="none" d="M240 182h1386v284H240z"/><path class="djs-hit djs-hit-click-stroke" fill="none" d="M246 188h1374v272H246z"/><path class="djs-hit djs-hit-all" fill="none" d="M246 188h30v272h-30z"/></g></g><g class="djs-group"><g class="djs-element djs-shape" data-element-id="Lane_0jwfpcu" display="block"><g class="djs-visual" transform="translate(246 460)"><rect width="1374" height="140" rx="0" ry="0" stroke="#000" stroke-width="2" fill="#fff" fill-opacity=".35"/><text class="djs-label" transform="rotate(-90 70 70)" font-family="Arial,sans-serif" font-size="12" font-weight="400"><tspan x="7.805" y="18.6">ModuleRegisterService</tspan></text></g><path class="djs-outline" fill="none" d="M240 454h1386v152H240z"/><path class="djs-hit djs-hit-click-stroke" fill="none" d="M246 460h1374v140H246z"/><path class="djs-hit djs-hit-all" fill="none" d="M246 460h30v140h-30z"/></g></g><g class="djs-group"><g class="djs-element djs-shape" data-element-id="Lane_0mg49u7" display="block"><g class="djs-visual" transform="translate(246 600)"><rect width="1374" height="570" rx="0" ry="0" stroke="#000" stroke-width="2" fill="#fff" fill-opacity=".35"/><text class="djs-label" transform="rotate(-90 285 285)" font-family="Arial,sans-serif" font-size="12" font-weight="400"><tspan x="264.82" y="18.6">Método</tspan></text></g><path class="djs-outline" fill="none" d="M240 594h1386v582H240z"/><path class="djs-hit djs-hit-click-stroke" fill="none" d="M246 600h1374v570H246z"/><path class="djs-hit djs-hit-all" fill="none" d="M246 600h30v570h-30z"/></g></g><g class="djs-group"><g class="djs-element djs-shape" data-element-id="Lane_0xthhvd" display="block"><g class="djs-visual" transform="translate(276 600)"><rect width="1344" height="240" rx="0" ry="0" stroke="#000" stroke-width="2" fill="#fff" fill-opacity=".35"/><text class="djs-label" transform="rotate(-90 120 120)" font-family="Arial,sans-serif" font-size="12" font-weight="400"><tspan x="101.813" y="18.6">handle</tspan></text></g><path class="djs-outline" fill="none" d="M270 594h1356v252H270z"/><path class="djs-hit djs-hit-click-stroke" fill="none" d="M276 600h1344v240H276z"/><path class="djs-hit djs-hit-all" fill="none" d="M276 600h30v240h-30z"/></g></g><g class="djs-group"><g class="djs-element djs-shape" data-element-id="Lane_0zgdex2" display="block"><g class="djs-visual" transform="translate(276 840)"><rect width="1344" height="330" rx="0" ry="0" stroke="#000" stroke-width="2" fill="#fff" fill-opacity=".35"/><text class="djs-label" transform="rotate(-90 165 165)" font-family="Arial,sans-serif" font-size="12" font-weight="400"><tspan x="124.313" y="18.6">Outras funções</tspan></text></g><path class="djs-outline" fill="none" d="M270 834h1356v342H270z"/><path class="djs-hit djs-hit-click-stroke" fill="none" d="M276 840h1344v330H276z"/><path class="djs-hit djs-hit-all" fill="none" d="M276 840h30v330h-30z"/></g></g><g class="djs-group"><g class="djs-element djs-shape" data-element-id="TextAnnotation_0gsx3s6" display="block"><g class="djs-visual" transform="translate(600 380)"><rect width="210" height="68" rx="0" ry="0" fill="none"/><path d="M10 0H0v68h10" fill="none" stroke-width="2" stroke="#000"/><text class="djs-label" font-family="Arial,sans-serif" font-size="12" font-weight="400"><tspan x="5" y="15.8">Todo o estado da requisição fica </tspan><tspan x="5" y="30.2">acessível dentro nessa raia. A </tspan><tspan x="5" y="44.6">resposta também precisa ser feita </tspan><tspan x="5" y="59">por aqui.</tspan></text></g><path class="djs-hit djs-hit-all" fill="none" d="M600 380h210v68H600z"/><path class="djs-outline" fill="none" d="M594 374h222v80H594z"/></g></g><g class="djs-group"><g class="djs-element djs-connection" data-element-id="SequenceFlow_1tkloqt" display="block"><path d="M350 158v127" fill="none" stroke-width="2" stroke="#000" stroke-linejoin="round" marker-end="url(#a)"/><path class="djs-hit djs-hit-stroke" fill="none" d="M350 158v127"/><path class="djs-outline" fill="none" d="M344 152h12v139h-12z"/></g></g><g class="djs-group"><g class="djs-element djs-connection" data-element-id="SequenceFlow_1ae4xqh" display="block"><path d="M350 335v65h60" fill="none" stroke-width="2" stroke="#000" stroke-linejoin="round" marker-end="url(#a)"/><path class="djs-hit djs-hit-stroke" fill="none" d="M350 335v65h60"/><path class="djs-outline" fill="none" d="M344 329h72v77h-72z"/></g></g><g class="djs-group"><g class="djs-element djs-connection" data-element-id="SequenceFlow_0irshs5" display="block"><path d="M375 310h67" fill="none" stroke-width="2" stroke="#000" stroke-linejoin="round" marker-end="url(#a)"/><path class="djs-hit djs-hit-stroke" fill="none" d="M375 310h67"/><path class="djs-outline" fill="none" d="M369 304h79v12h-79z"/></g></g><g class="djs-group"><g class="djs-element djs-connection" data-element-id="SequenceFlow_0yc72jr" display="block"><path d="M460 440v60" fill="none" stroke-width="2" stroke="#000" stroke-linejoin="round" marker-end="url(#a)"/><path class="djs-hit djs-hit-stroke" fill="none" d="M460 440v60"/><path class="djs-outline" fill="none" d="M454 434h12v72h-12z"/></g></g><g class="djs-group"><g class="djs-element djs-connection" data-element-id="SequenceFlow_1ieveoo" display="block"><path d="M610 580v47" fill="none" stroke-width="2" stroke="#000" stroke-linejoin="round" marker-end="url(#a)"/><path class="djs-hit djs-hit-stroke" fill="none" d="M610 580v47"/><path class="djs-outline" fill="none" d="M604 574h12v59h-12z"/></g></g><g class="djs-group"><g class="djs-element djs-connection" data-element-id="SequenceFlow_0gsqwzo" display="block"><path d="M510 540h50" fill="none" stroke-width="2" stroke="#000" stroke-linejoin="round" marker-end="url(#a)"/><path class="djs-hit djs-hit-stroke" fill="none" d="M510 540h50"/><path class="djs-outline" fill="none" d="M504 534h62v12h-62z"/></g></g><g class="djs-group"><g class="djs-element djs-connection" data-element-id="SequenceFlow_0g1898g" display="block"><path d="M660 667h50" fill="none" stroke-width="2" stroke="#000" stroke-linejoin="round" marker-end="url(#a)"/><path class="djs-hit djs-hit-stroke" fill="none" d="M660 667h50"/><path class="djs-outline" fill="none" d="M654 661h62v12h-62z"/></g></g><g class="djs-group"><g class="djs-element djs-connection" data-element-id="SequenceFlow_147p2w6" display="block"><path d="M910 707v163" fill="none" stroke-width="2" stroke="#000" stroke-linejoin="round" marker-end="url(#a)"/><path class="djs-hit djs-hit-stroke" fill="none" d="M910 707v163"/><path class="djs-outline" fill="none" d="M904 701h12v175h-12z"/></g></g><g class="djs-group"><g class="djs-element djs-connection" data-element-id="SequenceFlow_1fd3l8b" display="block"><path d="M1110 870V745" fill="none" stroke-width="2" stroke="#000" stroke-linejoin="round" marker-end="url(#a)"/><path class="djs-hit djs-hit-stroke" fill="none" d="M1110 870V745"/><path class="djs-outline" fill="none" d="M1104 739h12v137h-12z"/></g></g><g class="djs-group"><g class="djs-element djs-connection" data-element-id="SequenceFlow_1brfcqf" display="block"><path d="M810 667h50" fill="none" stroke-width="2" stroke="#000" stroke-linejoin="round" marker-end="url(#a)"/><path class="djs-hit djs-hit-stroke" fill="none" d="M810 667h50"/><path class="djs-outline" fill="none" d="M804 661h62v12h-62z"/></g></g><g class="djs-group"><g class="djs-element djs-connection" data-element-id="SequenceFlow_0oqajrr" display="block"><path d="M1135 720h60" fill="none" stroke-width="2" stroke="#000" stroke-linejoin="round" marker-end="url(#a)"/><path class="djs-hit djs-hit-stroke" fill="none" d="M1135 720h60"/><path class="djs-outline" fill="none" d="M1129 714h72v12h-72z"/></g></g><g class="djs-group"><g class="djs-element djs-connection" data-element-id="SequenceFlow_09102lb" display="block"><path d="M1110 695V158" fill="none" stroke-width="2" stroke="#000" stroke-linejoin="round" marker-end="url(#a)"/><path class="djs-hit djs-hit-stroke" fill="none" d="M1110 695V158"/><path class="djs-outline" fill="none" d="M1104 152h12v549h-12z"/></g></g><g class="djs-group"><g class="djs-element djs-connection" data-element-id="SequenceFlow_1prm5pl" display="block"><path d="M1220 695v-25H960" fill="none" stroke-width="2" stroke="#000" stroke-linejoin="round" marker-end="url(#a)"/><path class="djs-hit djs-hit-stroke" fill="none" d="M1220 695v-25H960"/><path class="djs-outline" fill="none" d="M954 664h272v37H954z"/></g></g><g class="djs-group"><g class="djs-element djs-connection" data-element-id="SequenceFlow_0tst7on" display="block"><path d="M1245 720h65" fill="none" stroke-width="2" stroke="#000" stroke-linejoin="round" marker-end="url(#a)"/><path class="djs-hit djs-hit-stroke" fill="none" d="M1245 720h65"/><path class="djs-outline" fill="none" d="M1239 714h77v12h-77z"/></g></g><g class="djs-group"><g class="djs-element djs-connection" data-element-id="SequenceFlow_10rm9s3" display="block"><path d="M1360 680V158" fill="none" stroke-width="2" stroke="#000" stroke-linejoin="round" marker-end="url(#a)"/><path class="djs-hit djs-hit-stroke" fill="none" d="M1360 680V158"/><path class="djs-outline" fill="none" d="M1354 152h12v534h-12z"/></g></g><g class="djs-group"><g class="djs-element djs-shape" data-element-id="ExclusiveGateway_07zyha2" display="block"><g class="djs-visual" stroke="#000"><path stroke-width="2" fill="#fff" fill-opacity=".95" d="M350 285l25 25-25 25-25-25z"/><path d="M341 300l7.429 9.714L341 319.43h3.429l5.714-7.465 5.714 7.465h3.429l-7.429-9.715 7.429-9.714h-3.429l-5.714 7.464-5.714-7.464H341z"/></g><path class="djs-hit djs-hit-all" fill="none" d="M325 285h50v50h-50z"/><path class="djs-outline" fill="none" d="M319 279h62v62h-62z"/></g></g><g class="djs-group"><g class="djs-element djs-shape" data-element-id="Task_0ro4j8z" display="block"><g class="djs-visual" transform="translate(410 360)"><rect width="100" height="80" rx="10" ry="10" stroke="#000" stroke-width="2" fill="#fff" fill-opacity=".95"/><text class="djs-label" font-family="Arial,sans-serif" font-size="12" font-weight="400"><tspan x="8.641" y="36.4">Verifica a quem </tspan><tspan x="8.813" y="50.8">a rota Pertence</tspan></text></g><path class="djs-hit djs-hit-all" fill="none" d="M410 360h100v80H410z"/><path class="djs-outline" fill="none" d="M404 354h112v92H404z"/></g></g><g class="djs-group"><g class="djs-element djs-shape" data-element-id="Task_09gtm4a" display="block"><g class="djs-visual" transform="translate(410 500)"><rect width="100" height="80" rx="10" ry="10" stroke="#000" stroke-width="2" fill="#fff" fill-opacity=".95"/><text class="djs-label" font-family="Arial,sans-serif" font-size="12" font-weight="400"><tspan x="20.813" y="22">Identifica o </tspan><tspan x="29.82" y="36.4">método </tspan><tspan x="17.477" y="50.8">responsável </tspan><tspan x="13.633" y="65.2">pelo endpoint</tspan></text></g><path class="djs-hit djs-hit-all" fill="none" d="M410 500h100v80H410z"/><path class="djs-outline" fill="none" d="M404 494h112v92H404z"/></g></g><g class="djs-group"><g class="djs-element djs-shape" data-element-id="Task_0gdevi5" display="block"><g class="djs-visual" transform="translate(560 500)"><rect width="100" height="80" rx="10" ry="10" stroke="#000" stroke-width="2" fill="#fff" fill-opacity=".95"/><text class="djs-label" font-family="Arial,sans-serif" font-size="12" font-weight="400"><tspan x="22.648" y="36.4">Separa os </tspan><tspan x="19.648" y="50.8">parâmetros</tspan></text><path d="M5.985 4.998v14h21v-14zl10.5 6 10.5-6" stroke="#fff"/></g><path class="djs-hit djs-hit-all" fill="none" d="M560 500h100v80H560z"/><path class="djs-outline" fill="none" d="M554 494h112v92H554z"/></g></g><g class="djs-group"><g class="djs-element djs-shape" data-element-id="Task_00w5n6e" display="block"><g class="djs-visual" transform="translate(560 627)"><rect width="100" height="80" rx="10" ry="10" stroke="#000" stroke-width="2" fill="#fff" fill-opacity=".95"/><text class="djs-label" font-family="Arial,sans-serif" font-size="12" font-weight="400"><tspan x="21.313" y="29.2">Recebe as </tspan><tspan x="8.813" y="43.6">informações da </tspan><tspan x="22.484" y="58">requisição</tspan></text><path d="M6.3 5.6v12.6h18.9V5.6zl9.45 5.4 9.45-5.4" fill="#fff" stroke="#000"/></g><path class="djs-hit djs-hit-all" fill="none" d="M560 627h100v80H560z"/><path class="djs-outline" fill="none" d="M554 621h112v92H554z"/></g></g><g class="djs-group"><g class="djs-element djs-shape" data-element-id="ExclusiveGateway_13h559u" display="block"><g class="djs-visual" stroke="#000"><path stroke-width="2" fill="#fff" fill-opacity=".95" d="M1110 695l25 25-25 25-25-25z"/><path d="M1101 710l7.429 9.714-7.429 9.715h3.429l5.714-7.465 5.714 7.465h3.429l-7.429-9.715 7.429-9.714h-3.429l-5.714 7.464-5.714-7.464H1101z"/></g><path class="djs-hit djs-hit-all" fill="none" d="M1085 695h50v50h-50z"/><path class="djs-outline" fill="none" d="M1079 689h62v62h-62z"/></g></g><g class="djs-group"><g class="djs-element djs-shape" data-element-id="ExclusiveGateway_06uql38" display="block"><g class="djs-visual" stroke="#000"><path stroke-width="2" fill="#fff" fill-opacity=".95" d="M1220 695l25 25-25 25-25-25z"/><path d="M1211 710l7.429 9.714-7.429 9.715h3.429l5.714-7.465 5.714 7.465h3.429l-7.429-9.715 7.429-9.714h-3.429l-5.714 7.464-5.714-7.464H1211z"/></g><path class="djs-hit djs-hit-all" fill="none" d="M1195 695h50v50h-50z"/><path class="djs-outline" fill="none" d="M1189 689h62v62h-62z"/></g></g><g class="djs-group"><g class="djs-element djs-shape" data-element-id="Task_1g91p1y" display="block"><g class="djs-visual" transform="translate(1310 680)"><rect width="100" height="80" rx="10" ry="10" stroke="#000" stroke-width="2" fill="#fff" fill-opacity=".95"/><text class="djs-label" font-family="Arial,sans-serif" font-size="12" font-weight="400"><tspan x="23.484" y="29.2">Prepara a </tspan><tspan x="26.82" y="43.6">resposta</tspan><tspan x="8.313" y="58">(status e corpo)</tspan></text><path d="M5.985 4.998v14h21v-14zl10.5 6 10.5-6" stroke="#fff"/></g><path class="djs-hit djs-hit-all" fill="none" d="M1310 680h100v80h-100z"/><path class="djs-outline" fill="none" d="M1304 674h112v92h-112z"/></g></g><g class="djs-group"><g class="djs-element djs-shape" data-element-id="StartEvent_0f5fpeu" display="block"><circle cx="18" cy="18" r="18" stroke="#000" stroke-width="2" fill="#fff" fill-opacity=".95" transform="translate(332 122)"/><path class="djs-hit djs-hit-all" fill="none" d="M332 122h36v36h-36z"/><path class="djs-outline" fill="none" d="M326 116h48v48h-48z"/></g></g><g class="djs-group"><g class="djs-element djs-shape" data-element-id="EndEvent_03yx2je" display="block"><g class="djs-visual" stroke="#000" transform="translate(1092 122)"><circle cx="18" cy="18" r="18" stroke-width="4" fill="#fff" fill-opacity=".95"/><path d="M7.2 25.992l.094-.025 7.339-9.611 7.667 8.966L27 7.102l-5.87 11.65-7.3-9.586z"/></g><path class="djs-hit djs-hit-all" fill="none" d="M1092 122h36v36h-36z"/><path class="djs-outline" fill="none" d="M1086 116h48v48h-48z"/></g></g><g class="djs-group"><g class="djs-element djs-shape" data-element-id="EndEvent_0l8zpdp" display="block"><g class="djs-visual" stroke="#000" transform="translate(442 292)"><circle cx="18" cy="18" r="18" stroke-width="4" fill="#fff" fill-opacity=".95"/><path d="M7.2 25.992l.094-.025 7.339-9.611 7.667 8.966L27 7.102l-5.87 11.65-7.3-9.586z"/></g><path class="djs-hit djs-hit-all" fill="none" d="M442 292h36v36h-36z"/><path class="djs-outline" fill="none" d="M436 286h48v48h-48z"/></g></g><g class="djs-group"><g class="djs-element djs-shape" data-element-id="Task_0p9omay" display="block"><g class="djs-visual" transform="translate(860 627)"><rect width="100" height="80" rx="10" ry="10" stroke="#000" stroke-width="2" fill="#fff" fill-opacity=".95"/><text class="djs-label" font-family="Arial,sans-serif" font-size="12" font-weight="400"><tspan x="30.82" y="29.2">Inicia a </tspan><tspan x="19.484" y="43.6">corrente de </tspan><tspan x="24.992" y="58">Promises</tspan></text><path d="M8 8v4h20V8z" fill="#aaa" stroke="#000"/><path d="M8 8v12h20V8zm0 8h20m-13-4v8" fill="none" stroke="#000"/></g><path class="djs-hit djs-hit-all" fill="none" d="M860 627h100v80H860z"/><path class="djs-outline" fill="none" d="M854 621h112v92H854z"/></g></g><g class="djs-group"><g class="djs-element djs-shape" data-element-id="Task_1hoi3k1" display="block"><g class="djs-visual" transform="translate(710 627)"><rect width="100" height="80" rx="10" ry="10" stroke="#000" stroke-width="2" fill="#fff" fill-opacity=".95"/><text class="djs-label" font-family="Arial,sans-serif" font-size="12" font-weight="400"><tspan x="7.133" y="36.4">Injeta no estado</tspan><tspan x="24.484" y="50.8">da classe</tspan></text><path d="M12 18v-1.713a5.588 5.588 0 002.014-.843l1.194 1.18 1.568-1.577-1.195-1.18c.403-.614.683-1.3.825-2.018l1.622-.01v-2.22l-1.636.01a5.613 5.613 0 00-.846-2.006l1.13-1.136-1.583-1.563-1.13 1.136a5.723 5.723 0 00-2.022-.823l.01-1.618H9.708l.004 1.631c-.353.074-.705.18-1.05.324a5.69 5.69 0 00-.963.52L6.53 4.936l-1.567 1.58 1.169 1.156a5.67 5.67 0 00-.825 2.017l-1.659.003v2.222l1.673-.006a5.527 5.527 0 00.847 2.005l-1.2 1.197 1.585 1.56 1.196-1.193a5.67 5.67 0 002.023.823l.001 1.7H12zm.221-3.996a3.53 3.53 0 01-4.61-1.874 3.51 3.51 0 011.881-4.596 3.53 3.53 0 014.609 1.874 3.511 3.511 0 01-1.88 4.596z" fill="#fff" stroke="#000"/><path d="M17.2 18a3.53 3.53 0 01-4.61-1.874 3.51 3.51 0 011.88-4.596 3.53 3.53 0 014.61 1.874A3.511 3.511 0 0117.2 18z" fill="#fff"/><path d="M17 22v-1.713a5.588 5.588 0 002.014-.843l1.194 1.18 1.568-1.577-1.195-1.18c.403-.614.683-1.3.825-2.018l1.622-.01v-2.22l-1.636.01a5.613 5.613 0 00-.846-2.006l1.13-1.136-1.583-1.563-1.13 1.136a5.723 5.723 0 00-2.022-.823l.01-1.618h-2.242l.004 1.631c-.353.074-.705.18-1.05.324a5.69 5.69 0 00-.963.52l-1.17-1.158-1.567 1.58 1.169 1.156a5.67 5.67 0 00-.825 2.017l-1.659.003v2.222l1.673-.006a5.527 5.527 0 00.847 2.005l-1.2 1.197 1.585 1.56 1.196-1.193a5.67 5.67 0 002.023.823l.001 1.7H17zm.221-3.996a3.53 3.53 0 01-4.61-1.874 3.51 3.51 0 011.881-4.596 3.53 3.53 0 014.609 1.874 3.511 3.511 0 01-1.88 4.596z" fill="#fff" stroke="#000"/></g><path class="djs-hit djs-hit-all" fill="none" d="M710 627h100v80H710z"/><path class="djs-outline" fill="none" d="M704 621h112v92H704z"/></g></g><g class="djs-group"><g class="djs-element djs-shape" data-element-id="EndEvent_03j2qxs" display="block"><g class="djs-visual" stroke="#000" stroke-width="4" transform="translate(1342 122)"><circle cx="18" cy="18" r="18" fill="#fff" fill-opacity=".95"/><circle cx="18" cy="18" r="10"/></g><path class="djs-hit djs-hit-all" fill="none" d="M1342 122h36v36h-36z"/><path class="djs-outline" fill="none" d="M1336 116h48v48h-48z"/></g></g><g class="djs-group"><g class="djs-element djs-shape" data-element-id="Task_1epu2vn" display="block"><g class="djs-visual" transform="translate(685 870)"><rect width="450" height="270" rx="10" ry="10" stroke="#000" stroke-width="2" fill="#fff" fill-opacity=".95"/><text class="djs-label" font-family="Arial,sans-serif" font-size="12" font-weight="400"><tspan x="173.813" y="15.8">Processa a primise</tspan></text></g><path class="djs-outline" fill="none" d="M679 864h462v282H679z"/><path class="djs-hit djs-hit-click-stroke" fill="none" d="M685 870h450v270H685z"/><path class="djs-hit djs-hit-all" fill="none" d="M685 870h450v30H685z"/></g><g class="djs-children"><g class="djs-group"><g class="djs-element djs-connection" data-element-id="SequenceFlow_1mkjdlg" display="block"><path d="M760 970h40" fill="none" stroke-width="2" stroke="#000" stroke-linejoin="round" marker-end="url(#a)"/><path class="djs-hit djs-hit-stroke" fill="none" d="M760 970h40"/><path class="djs-outline" fill="none" d="M754 964h52v12h-52z"/></g></g><g class="djs-group"><g class="djs-element djs-connection" data-element-id="SequenceFlow_1a368t2" display="block"><path d="M900 970h45" fill="none" stroke-width="2" stroke="#000" stroke-linejoin="round" marker-end="url(#a)"/><path class="djs-hit djs-hit-stroke" fill="none" d="M900 970h45"/><path class="djs-outline" fill="none" d="M894 964h57v12h-57z"/></g></g><g class="djs-group"><g class="djs-element djs-connection" data-element-id="SequenceFlow_0lvrrau" display="block"><path d="M995 970h47" fill="none" stroke-width="2" stroke="#000" stroke-linejoin="round" marker-end="url(#a)"/><path class="djs-hit djs-hit-stroke" fill="none" d="M995 970h47"/><path class="djs-outline" fill="none" d="M989 964h59v12h-59z"/></g></g><g class="djs-group"><g class="djs-element djs-connection" data-element-id="SequenceFlow_1xnnj2r" display="block"><path d="M970 995v47" fill="none" stroke-width="2" stroke="#000" stroke-linejoin="round" marker-end="url(#a)"/><path class="djs-hit djs-hit-stroke" fill="none" d="M970 995v47"/><path class="djs-outline" fill="none" d="M964 989h12v59h-12z"/></g></g><g class="djs-group"><g class="djs-element djs-shape" data-element-id="ExclusiveGateway_0vvzk3v" display="block"><g class="djs-visual" stroke="#000"><path stroke-width="2" fill="#fff" fill-opacity=".95" d="M970 945l25 25-25 25-25-25z"/><path d="M961 960l7.429 9.714L961 979.43h3.429l5.714-7.465 5.714 7.465h3.429l-7.429-9.715 7.429-9.714h-3.429l-5.714 7.464-5.714-7.464H961z"/></g><path class="djs-hit djs-hit-all" fill="none" d="M945 945h50v50h-50z"/><path class="djs-outline" fill="none" d="M939 939h62v62h-62z"/></g></g><g class="djs-group"><g class="djs-element djs-shape" data-element-id="DataStoreReference_0igx82z" display="block"><path d="M717 1041.65v36.885c1.64 8.197 47.541 8.197 49.18 0v-36.885c-1.639-8.197-47.54-8.197-49.18 0 1.64 8.197 47.541 8.197 49.18 0m-49.18 5.738c1.64 8.196 47.541 8.196 49.18 0m-49.18 5.737c1.64 8.197 47.541 8.197 49.18 0" fill="#fff" stroke-width="2" stroke="#000" fill-opacity=".95"/><path class="djs-hit djs-hit-all" fill="none" d="M717 1035h50v50h-50z"/><path class="djs-outline" fill="none" d="M711 1029h62v62h-62z"/></g></g><g class="djs-group"><g class="djs-element djs-shape" data-element-id="EndEvent_07nnvwl" display="block"><g class="djs-visual" stroke="#000" transform="translate(952 1042)"><circle cx="18" cy="18" r="18" stroke-width="4" fill="#fff" fill-opacity=".95"/><path d="M7.2 25.992l.094-.025 7.339-9.611 7.667 8.966L27 7.102l-5.87 11.65-7.3-9.586z"/></g><path class="djs-hit djs-hit-all" fill="none" d="M952 1042h36v36h-36z"/><path class="djs-outline" fill="none" d="M946 1036h48v48h-48z"/></g></g><g class="djs-group"><g class="djs-element djs-shape" data-element-id="EndEvent_10wqn4i" display="block"><g class="djs-visual" transform="translate(1042 952)"><circle cx="18" cy="18" r="18" stroke="#000" stroke-width="4" fill="#fff" fill-opacity=".95"/><path d="M8.46 11.34v12.6h18.9v-12.6zl9.45 5.4 9.45-5.4" stroke="#fff"/></g><path class="djs-hit djs-hit-all" fill="none" d="M1042 952h36v36h-36z"/><path class="djs-outline" fill="none" d="M1036 946h48v48h-48z"/></g></g><g class="djs-group"><g class="djs-element djs-shape" data-element-id="StartEvent_0x9lzx2" display="block"><g class="djs-visual" stroke="#000" transform="translate(724 952)"><circle cx="18" cy="18" r="18" stroke-width="2" fill="#fff" fill-opacity=".95"/><path d="M10.5 8.5H25v18H10.5zm2 3H23m-10.5 3H23m-10.5 3H23m-10.5 3H23m-10.5 3H23m-10.5 3H23" fill="none"/></g><path class="djs-hit djs-hit-all" fill="none" d="M724 952h36v36h-36z"/><path class="djs-outline" fill="none" d="M718 946h48v48h-48z"/></g></g><g class="djs-group"><g class="djs-element djs-shape" data-element-id="Task_1a4cr62" display="block"><g class="djs-visual" transform="translate(800 930)"><rect width="100" height="80" rx="10" ry="10" stroke="#000" stroke-width="2" fill="#fff" fill-opacity=".95"/><text class="djs-label" font-family="Arial,sans-serif" font-size="12" font-weight="400"><tspan x="20.313" y="36.4">Executa as </tspan><tspan x="22.648" y="50.8">sentenças</tspan></text><path d="M8 8v4h20V8z" fill="#aaa" stroke="#000"/><path d="M8 8v12h20V8zm0 8h20m-13-4v8" fill="none" stroke="#000"/></g><path class="djs-hit djs-hit-all" fill="none" d="M800 930h100v80H800z"/><path class="djs-outline" fill="none" d="M794 924h112v92H794z"/></g></g></g></g><g class="djs-group"><g class="djs-element djs-connection" data-element-id="Association_1ifhsij" display="block"><path fill="none" stroke="#000" stroke-width="2" stroke-dasharray=".5,5" stroke-linecap="round" stroke-linejoin="round" d="M570 500h10v-85l20-1"/><path class="djs-hit djs-hit-stroke" fill="none" d="M570 500h10v-85l20-1"/><path class="djs-outline" fill="none" d="M564 408h42v98h-42z"/></g></g></g></g><g class="djs-group"><g class="djs-element djs-shape" data-element-id="EndEvent_1tpjy3i_label" display="block"><g class="djs-visual"><text class="djs-label" font-family="Arial,sans-serif" font-size="11" font-weight="400" transform="translate(932 1085)"><tspan x="22.016" y="9.9">Reject </tspan><tspan x="0" y="23.1">(HttpException)</tspan></text></g><path class="djs-hit djs-hit-all" fill="none" d="M932 1085h77v27h-77z"/><path class="djs-outline" fill="none" d="M926 1079h89v39h-89z"/></g></g><g class="djs-group"><g class="djs-element djs-shape" data-element-id="EndEvent_1okxjfo_label" display="block"><g class="djs-visual"><text class="djs-label" font-family="Arial,sans-serif" font-size="11" font-weight="400" transform="translate(1040 995)"><tspan x="0" y="9.9">Resolve</tspan></text></g><path class="djs-hit djs-hit-all" fill="none" d="M1040 995h40v14h-40z"/><path class="djs-outline" fill="none" d="M1034 989h52v26h-52z"/></g></g><g class="djs-group"><g class="djs-element djs-shape" data-element-id="SequenceFlow_0tst7on_label" display="block"><g class="djs-visual"><text class="djs-label" font-family="Arial,sans-serif" font-size="11" font-weight="400" transform="translate(1267 702)"><tspan x="0" y="9.9">Não</tspan></text></g><path class="djs-hit djs-hit-all" fill="none" d="M1267 702h21v14h-21z"/><path class="djs-outline" fill="none" d="M1261 696h33v26h-33z"/></g></g><g class="djs-group"><g class="djs-element djs-shape" data-element-id="EndEvent_0vfa6u0_label" display="block"><g class="djs-visual"><text class="djs-label" font-family="Arial,sans-serif" font-size="11" font-weight="400" transform="translate(450 335)"><tspan x="0" y="9.9">404</tspan></text></g><path class="djs-hit djs-hit-all" fill="none" d="M450 335h20v14h-20z"/><path class="djs-outline" fill="none" d="M444 329h32v26h-32z"/></g></g><g class="djs-group"><g class="djs-element djs-shape" data-element-id="ExclusiveGateway_07zyha2_label" display="block"><g class="djs-visual"><text class="djs-label" font-family="Arial,sans-serif" font-size="11" font-weight="400" transform="translate(367 274)"><tspan x="0" y="9.9">A rota existe?</tspan></text></g><path class="djs-hit djs-hit-all" fill="none" d="M367 274h67v14h-67z"/><path class="djs-outline" fill="none" d="M361 268h79v26h-79z"/></g></g><g class="djs-group"><g class="djs-element djs-shape" data-element-id="ExclusiveGateway_06uql38_label" display="block"><g class="djs-visual"><text class="djs-label" font-family="Arial,sans-serif" font-size="11" font-weight="400" transform="translate(1181 752)"><tspan x="0" y="9.9">Gatilho de outra </tspan><tspan x="16.516" y="23.1">promise?</tspan></text></g><path class="djs-hit djs-hit-all" fill="none" d="M1181 752h79v27h-79z"/><path class="djs-outline" fill="none" d="M1175 746h91v39h-91z"/></g></g><g class="djs-group"><g class="djs-element djs-shape" data-element-id="ExclusiveGateway_0vvzk3v_label" display="block"><g class="djs-visual"><text class="djs-label" font-family="Arial,sans-serif" font-size="11" font-weight="400" transform="translate(931 921)"><tspan x="0" y="9.9">Deu tudo certo?</tspan></text></g><path class="djs-hit djs-hit-all" fill="none" d="M931 921h79v14h-79z"/><path class="djs-outline" fill="none" d="M925 915h91v26h-91z"/></g></g><g class="djs-group"><g class="djs-element djs-shape" data-element-id="DataStoreReference_0igx82z_label" display="block"><g class="djs-visual"><text class="djs-label" font-family="Arial,sans-serif" font-size="11" font-weight="400" transform="translate(702 1092)"><tspan x="0" y="9.9">Banco de dados</tspan></text></g><path class="djs-hit djs-hit-all" fill="none" d="M702 1092h81v14h-81z"/><path class="djs-outline" fill="none" d="M696 1086h93v26h-93z"/></g></g><g class="djs-group"><g class="djs-element djs-shape" data-element-id="ExclusiveGateway_13h559u_label" display="block"><g class="djs-visual"><text class="djs-label" font-family="Arial,sans-serif" font-size="11" font-weight="400" transform="translate(995.5 713)"><tspan x="0" y="9.9">Deu tudo certo?</tspan></text></g><path class="djs-hit djs-hit-all" fill="none" d="M995.5 713h79v14h-79z"/><path class="djs-outline" fill="none" d="M989.5 707h91v26h-91z"/></g></g><g class="djs-group"><g class="djs-element djs-shape" data-element-id="EndEvent_1s7rwm5_label" display="block"><g class="djs-visual"><text class="djs-label" font-family="Arial,sans-serif" font-size="11" font-weight="400" transform="translate(1075 103)"><tspan x="0" y="9.9">HttpException</tspan></text></g><path class="djs-hit djs-hit-all" fill="none" d="M1075 103h69v14h-69z"/><path class="djs-outline" fill="none" d="M1069 97h81v26h-81z"/></g></g><g class="djs-group"><g class="djs-element djs-shape" data-element-id="SequenceFlow_09102lb_label" display="block"><g class="djs-visual"><text class="djs-label" font-family="Arial,sans-serif" font-size="11" font-weight="400" transform="translate(1115 442)"><tspan x="0" y="9.9">Não</tspan></text></g><path class="djs-hit djs-hit-all" fill="none" d="M1115 442h21v14h-21z"/><path class="djs-outline" fill="none" d="M1109 436h33v26h-33z"/></g></g><g class="djs-group"><g class="djs-element djs-shape" data-element-id="SequenceFlow_1prm5pl_label" display="block"><g class="djs-visual"><text class="djs-label" font-family="Arial,sans-serif" font-size="11" font-weight="400" transform="translate(1190 653)"><tspan x="0" y="9.9">Sim</tspan></text></g><path class="djs-hit djs-hit-all" fill="none" d="M1190 653h19v14h-19z"/><path class="djs-outline" fill="none" d="M1184 647h31v26h-31z"/></g></g><g class="djs-group"><g class="djs-element djs-shape" data-element-id="EndEvent_03j2qxs_label" display="block"><g class="djs-visual"><text class="djs-label" font-family="Arial,sans-serif" font-size="11" font-weight="400" transform="translate(1337 103)"><tspan x="0" y="9.9">Resposta</tspan></text></g><path class="djs-hit djs-hit-all" fill="none" d="M1337 103h47v14h-47z"/><path class="djs-outline" fill="none" d="M1331 97h59v26h-59z"/></g></g><g class="djs-group"><g class="djs-element djs-connection" data-element-id="DataOutputAssociation_05js3a7" display="block"><path fill="none" stroke="#000" stroke-width="2" stroke-dasharray=".5,5" stroke-linecap="round" stroke-linejoin="round" marker-end="url(#b)" d="M850 1010v50h-80"/><path class="djs-hit djs-hit-stroke" fill="none" d="M850 1010v50h-80"/><path class="djs-outline" fill="none" d="M764 1004h92v62h-92z"/></g></g></svg>