<svg xmlns="http://www.w3.org/2000/svg" viewBox="0 0 1268.95 159"><g data-name="Camada 2"><g data-name="Layer 2"><path d="M673.25 62.48c0-5.37-1.65-9.67-5-13s-9.67-5-18.94-5h-15.79v37.2h17.19c15.02.04 22.54-6.4 22.54-19.2zm108.22-18.89h-18v32.33h17c15.53 0 22-4.87 22-16.29-.01-10.63-7.04-16.03-21-16.04z" fill="none"/><path d="M0 81.8A77.2 77.2 0 0077.2 159H280V0H0zm157.72-68.12h102.06v31.45h-65.63V65h56.74v27h-56.74v22h68.75v31.44H157.72zm-140.62 0H143v32H98.15v99.61H61.73V45.71H17.1zm316.49 77.64l56.74.03.01-26.95-56.73-.03.01-19.82 65.62.03.01-31.45-102.05-.05-.06 131.64 105.18.05.01-31.44-68.75-.03.01-21.98zM496.3 71.58h-.39L458 13.16h-37.6l-.07 131.64h36.43V92.36c-.1-4.49-.68-13.58-1.85-27.35l.69-.19 13.37 23 24.59 37.61h5.17L523 87.8c2.25-3.42 6.74-11.13 13.39-22.94l.59.19-1.63 27.35v52.44h36.33l.07-131.64h-37.6zm212.79-10.25c0-14.65-4.87-26.37-14.72-35.07s-24.61-13-44-13h-53.22L597 144.87h36.43v-35.36h21.58c34.92.05 54.07-17.22 54.08-48.18zM633.5 81.7V44.5h15.82c9.27 0 15.62 1.67 18.94 5s5 7.62 5 13c0 12.8-7.52 19.24-22.56 19.23zM818.45 95c13.19-7.13 19.84-19.33 19.84-36.62 0-13.77-4.67-24.71-13.94-32.82S801 13.33 782.46 13.32h-55.37L727 144.93h36.43v-43h17.77l25.18 43h40.43l-28.4-49.43zm-38-19.07h-17V43.6h18c14 0 21 5.38 21 16 0 11.4-6.45 16.32-21.98 16.31zm116.62 15.66l56.74.03.01-26.95-56.74-.03.01-19.82 65.63.03.01-31.45-102.05-.04-.06 131.64 105.17.05.02-31.45-68.75-.03.01-21.98zM1106.35 73h-58.39v26H1070v9.37q-3.08 3.23-10 5.56a45.36 45.36 0 01-15.24 2.44 29 29 0 01-22.07-9.49c-6-6.35-9-14.85-9-25.68 0-11 3.43-20.22 10.27-27.34s16.41-10.64 28.62-10.63a73.78 73.78 0 0140.52 11.93l9-29.59c-13-9.57-30.56-14.37-52.53-14.38s-39.56 6.62-53 19.9-20.23 30-20.24 50.09q0 28.86 17.56 47.56c11.61 12.61 27.23 18.86 46.86 18.87 15.53 0 27.15-5 34.77-15h1l5.85 12.6h23.93zm141.92-42.56q-20.79-19.2-52.24-19.27-31.63 0-52.45 19.22t-20.82 48.13q0 30.92 20.48 50T1196 147.6q32.8 0 52.94-19.51t20-49.5q.06-28.86-20.67-48.15zm-76.8 82.92h-15.6v-46.8h15.6zm70.2-42.57v7.47a7.83 7.83 0 01-.57 2.85l-11.76 27.49a7.78 7.78 0 01-7.17 4.76h-35.1a7.8 7.8 0 01-7.8-7.8v-39a7.89 7.89 0 012.28-5.52l25.68-25.68 4.15 4.12a5.79 5.79 0 011.72 4.13 6.09 6.09 0 01-.14 1.23l-3.72 17.82h24.63a7.8 7.8 0 017.8 7.8v.3z" fill="#fff"/></g></g></svg>