<svg xmlns="http://www.w3.org/2000/svg" viewBox="0 0 620.43 117.82"><g data-name="Camada 2"><g data-name="Camada 1"><g data-name="Layer 2"><g data-name="Layer 1-2"><path d="M21.08 2l40.2 74.84-10.46 19.41L0 2zm66.83 114.34H67L128.59 2h20.92z" fill="#d33831"/><path d="M141.51 73.54l79.25.16-29.25-55.4-21.57 40.53h-20.59L179.58 2h23.69l60.63 114.34h-20.75l-13.24-25.65H153l-13.24 25.65H119zM280.23 2h19v97.4h62.25v17h-81.25zm208.5 57q0 24-15.52 40.36-17.32 18.47-45.21 18.46t-45.43-18.63q-15.4-16.68-15.4-40.19 0-23.86 15.35-40.2Q400.34 0 428 0t45.42 18.63Q488.74 35 488.73 59zm-18.62 0q0-19.12-11.93-30.4Q446.74 17.15 428 17.15q-19.61 0-31.7 13.25Q385.64 42 385.63 59q0 18.47 12.09 30.22 11.61 11.61 30.23 11.61 18.94 0 30.23-11.45Q470.11 78.1 470.11 59zm150.32 57.34l-30.55-44.61q13.73-2.28 21.24-10.45 8.49-8.67 8.5-23.37 0-16.51-10.3-26.31Q598.87 2 581.06 2h-76v114.34h19V19h54.49q21.65.8 21.65 18.92 0 17.64-21.73 17.81h-22.23l42.14 60.65z" fill="#fff"/></g></g></g></g></svg>