<svg xmlns="http://www.w3.org/2000/svg" viewBox="0 0 174.14 104.66"><defs><style>.cls-2{fill:#fff}</style></defs><g id="Camada_2" data-name="Camada 2"><g id="Layer_1" data-name="Layer 1"><path d="M174.14 51.72c0-14.76-5.31-27-15.87-36.94S134.46.07 118.48 0H0v53.84a50.82 50.82 0 0050.82 50.82h67.66q24.95-.08 40.28-15t15.38-37.94z" fill="#673ab7"/><path class="cls-2" d="M82.63 78.06h11.89V42.37H82.63zm65.43-32.72a6 6 0 00-5.95-5.94h-18.78l2.84-13.59a4.75 4.75 0 00.1-.94 4.4 4.4 0 00-1.27-3.15l-3.16-3.14-19.63 19.58a6 6 0 00-1.74 4.21v29.74a6 6 0 006 6h26.77a5.92 5.92 0 005.47-3.63l9-21a6.08 6.08 0 00.43-2.17V45.6z"/><path class="cls-2" d="M40.63 95.55V30H11.26V8.9h82.85V30h-29.5v65.55z"/></g></g></svg>